<?xml version="1.0" encoding="UTF-8"?>
<svg version="1.1" xmlns="http://www.w3.org/2000/svg" width="820" height="538">
<path d="M0,0 L9,0 L16,2 L21,10 L25,23 L28,35 L28,49 L24,61 L22,65 L19,93 L15,101 L10,105 L-4,110 L-16,115 L-28,124 L-33,130 L-33,135 L-24,137 L-18,141 L-15,142 L5,142 L7,138 L9,137 L19,137 L44,142 L46,143 L55,143 L68,137 L82,134 L96,135 L102,138 L109,146 L114,157 L116,165 L116,173 L112,197 L109,222 L107,238 L103,258 L98,274 L94,303 L92,311 L86,321 L80,326 L72,329 L60,331 L54,336 L53,338 L51,338 L50,344 L50,355 L49,370 L45,383 L40,396 L35,401 L26,404 L17,404 L5,401 L-1,396 L-9,395 L-9,397 L-19,403 L-29,410 L-38,415 L-44,417 L-59,419 L-61,423 L-69,425 L-77,425 L-87,430 L-98,430 L-110,424 L-113,421 L-117,412 L-117,410 L-121,408 L-130,399 L-134,391 L-140,382 L-142,377 L-144,374 L-144,353 L-149,348 L-165,345 L-176,338 L-191,334 L-201,327 L-206,323 L-218,317 L-230,309 L-237,305 L-245,302 L-250,295 L-252,288 L-252,274 L-253,270 L-249,257 L-239,241 L-234,236 L-229,229 L-227,229 L-225,224 L-219,215 L-214,208 L-209,205 L-205,199 L-200,182 L-194,167 L-190,160 L-184,150 L-182,145 L-179,145 L-177,141 L-171,136 L-165,132 L-162,129 L-152,124 L-142,119 L-134,115 L-123,105 L-113,98 L-110,91 L-111,66 L-114,47 L-114,30 L-112,24 L-109,19 L-104,17 L-91,14 L-73,13 L-73,10 L-52,7 L-45,6 L-25,6 L-8,3 Z " fill="#FEFDFE" transform="translate(456,69)"/>
<path d="M0,0 L10,0 L9,8 L8,13 L15,13 L14,20 L6,57 L3,76 L2,78 L0,93 L-2,106 L-6,133 L-8,152 L-17,158 L-20,159 L-28,159 L-32,155 L-32,153 L-40,152 L-45,146 L-48,135 L-50,125 L-52,148 L-62,153 L-72,153 L-72,147 L-74,148 L-87,148 L-92,154 L-105,160 L-111,161 L-123,161 L-125,156 L-132,156 L-137,151 L-138,147 L-138,123 L-133,86 L-130,67 L-135,91 L-139,115 L-143,146 L-144,153 L-154,153 L-160,148 L-166,146 L-173,140 L-174,138 L-174,120 L-171,100 L-173,100 L-174,109 L-176,124 L-177,127 L-179,161 L-190,161 L-199,155 L-206,152 L-211,148 L-215,156 L-221,161 L-226,163 L-235,163 L-246,157 L-254,153 L-262,144 L-266,135 L-269,120 L-269,98 L-266,81 L-261,65 L-252,48 L-242,35 L-233,25 L-225,17 L-215,10 L-211,7 L-208,8 L-203,20 L-199,24 L-196,34 L-195,40 L-192,25 L-189,14 L-180,14 L-172,17 L-164,22 L-164,31 L-160,33 L-161,46 L-161,47 L-156,26 L-152,9 L-151,6 L-140,6 L-131,10 L-126,14 L-127,21 L-122,23 L-120,25 L-116,18 L-107,12 L-96,9 L-71,9 L-71,19 L-72,22 L-66,22 L-67,33 L-70,41 L-74,45 L-89,48 L-93,57 L-95,63 L-86,63 L-86,72 L-87,76 L-80,76 L-81,86 L-86,94 L-93,97 L-100,97 L-102,107 L-104,120 L-92,115 L-90,115 L-89,118 L-89,131 L-83,130 L-82,121 L-78,90 L-75,73 L-72,55 L-68,39 L-64,26 L-59,20 L-49,14 L-46,13 L-33,13 L-33,25 L-28,25 L-27,32 L-27,50 L-25,50 L-25,42 L-18,8 L-10,3 Z " fill="#EB707E" transform="translate(538,213)"/>
<path d="M0,0 L820,0 L820,538 L0,538 Z M605,3 L559,4 L512,7 L505,9 L502,11 L491,12 L470,13 L417,14 L392,15 L280,16 L123,16 L90,15 L49,12 L32,10 L16,10 L12,9 L3,9 L3,167 L4,167 L5,149 L10,179 L12,203 L13,233 L17,264 L18,275 L19,304 L19,348 L15,361 L13,375 L10,424 L6,451 L5,461 L4,433 L3,433 L2,525 L2,533 L3,534 L416,534 L507,535 L553,535 L630,534 L797,534 L812,531 L813,527 L815,527 L815,531 L817,531 L817,160 L815,164 L815,182 L813,182 L812,165 L811,158 L809,159 L808,132 L810,132 L811,136 L814,116 L817,116 L817,21 L813,13 L811,6 L802,3 Z " fill="#FEFEFE" transform="translate(0,0)"/>
<path d="M0,0 L9,0 L10,1 L10,8 L6,34 L0,76 L-2,77 L-32,78 L-47,90 L-63,102 L-70,107 L-74,106 L-73,98 L-70,87 L-87,87 L-89,85 L-93,69 L-98,43 L-104,16 L-103,12 L-102,11 L-42,5 L-23,3 L-19,2 L-5,1 Z " fill="#EB6B79" transform="translate(458,77)"/>
<path d="M0,0 L8,0 L7,9 L-1,48 L-6,79 L-9,95 L-13,131 L-15,138 L-20,142 L-25,144 L-32,144 L-36,140 L-40,126 L-46,81 L-47,76 L-50,77 L-54,96 L-56,111 L-57,127 L-59,134 L-69,138 L-76,138 L-75,126 L-68,80 L-65,59 L-58,31 L-55,22 L-46,14 L-41,12 L-34,12 L-32,35 L-29,67 L-27,83 L-24,82 L-19,57 L-13,22 L-10,5 Z " fill="#FEFDFD" transform="translate(534,218)"/>
<path d="M0,0 L10,0 L17,4 L13,26 L5,61 L1,81 L-3,107 L-5,130 L-6,132 L-14,132 L-19,129 L-22,124 L-22,109 L-16,75 L-34,80 L-37,94 L-40,118 L-41,140 L-50,140 L-55,137 L-58,134 L-58,113 L-57,99 L-53,78 L-50,62 L-38,11 L-37,8 L-30,8 L-21,13 L-22,22 L-25,39 L-30,57 L-14,53 L-11,53 L-10,42 L-6,27 Z " fill="#FEFDFD" transform="translate(390,224)"/>
<path d="M0,0 L16,0 L15,11 L12,19 L8,22 L-8,26 L-12,37 L-14,46 L-15,55 L1,55 L1,62 L-2,69 L-8,74 L-18,74 L-22,95 L-23,113 L-12,112 L-1,108 L-1,117 L-5,126 L-9,131 L-19,136 L-28,138 L-40,138 L-41,137 L-41,112 L-38,84 L-32,48 L-27,24 L-24,14 L-20,7 L-10,2 Z " fill="#FEFDFD" transform="translate(446,226)"/>
<path d="M0,0 L2,0 L5,8 L6,12 L6,25 L1,30 L-11,38 L-18,44 L-25,54 L-32,69 L-35,80 L-36,86 L-36,97 L-33,109 L-28,115 L-25,117 L-16,117 L-11,115 L-8,115 L-9,126 L-14,135 L-22,140 L-32,140 L-41,135 L-47,127 L-51,115 L-52,108 L-52,85 L-48,63 L-40,44 L-31,30 L-19,16 L-10,7 Z " fill="#FEFCFD" transform="translate(326,226)"/>
<path d="M0,0 L7,1 L18,7 L21,11 L21,21 L19,17 L18,24 L16,26 L17,29 L18,33 L13,49 L2,65 L-2,67 L-13,66 L-17,62 L-20,53 L-20,38 L-15,17 L-10,9 L-4,2 Z " fill="#EB6F7D" transform="translate(411,391)"/>
<path d="M0,0 L1,2 L-6,33 L-11,64 L-13,87 L-19,89 L-19,73 L-30,77 L-38,77 L-40,75 L-41,71 L-41,58 L-36,41 L-32,31 L-25,20 L-16,11 L-1,1 Z " fill="#FEFCFC" transform="translate(340,262)"/>
<path d="M0,0 L4,1 L10,6 L9,16 L5,38 L16,38 L16,5 L21,4 L27,7 L27,18 L23,47 L21,66 L12,65 L12,52 L13,51 L14,43 L1,43 L-8,40 L-8,31 L-5,20 L-3,10 Z " fill="#EB6F7D" transform="translate(459,390)"/>
<path d="M0,0 L5,2 L9,6 L8,16 L6,28 L4,38 L16,38 L16,4 L23,5 L27,7 L26,24 L22,53 L21,65 L19,66 L13,65 L13,55 L15,48 L14,43 L0,43 L-9,40 L-9,34 L-6,23 L-3,7 Z " fill="#EB6F7D" transform="translate(346,390)"/>
<path d="M0,0 L3,1 L4,3 L4,13 L1,30 L-5,45 L-9,51 L-14,55 L-16,50 L-16,42 L-15,35 L-14,34 L-11,18 L-6,6 L-2,1 Z " fill="#FEFBFB" transform="translate(418,398)"/>
<path d="M0,0 L1,0 L1,75 L-1,74 L-1,6 Z " fill="#FEFEFE" transform="translate(814,434)"/>
<path d="M0,0 L1,0 L0,12 L-5,47 L-6,56 L-7,56 L-8,51 L-9,47 L-2,9 Z " fill="#F9D6DA" transform="translate(408,275)"/>
<path d="M0,0 L2,0 L1,13 L-1,35 L-2,35 L-3,26 L-4,24 L-2,9 Z " fill="#FBE6E8" transform="translate(365,313)"/>
<path d="M0,0 L2,0 L2,8 L1,11 L0,22 L-2,22 L-2,9 L-1,8 Z " fill="#F2A5AE" transform="translate(473,433)"/>
<path d="M0,0 L1,4 L-1,11 L-2,21 L-4,20 L-4,12 L-2,3 L0,3 Z " fill="#F5B8BE" transform="translate(361,434)"/>
<path d="M0,0 L2,1 L1,8 L-3,9 L-2,1 Z " fill="#F098A2" transform="translate(427,420)"/>
<path d="M0,0 L1,0 L1,9 L0,16 L-1,16 L-2,7 Z " fill="#F9D6DA" transform="translate(404,297)"/>
<path d="M0,0 L6,0 L2,5 L0,7 Z " fill="#F1F1F1" transform="translate(0,0)"/>
</svg>
