<svg width="512" height="512" viewBox="0 0 512 512" fill="none" xmlns="http://www.w3.org/2000/svg" role="img" aria-labelledby="title desc">
  <title id="title">Default member avatar</title>
  <desc id="desc">A soft neutral member avatar with a subtle sakura accent.</desc>
  <defs>
    <linearGradient id="bg" x1="88" y1="64" x2="424" y2="456" gradientUnits="userSpaceOnUse">
      <stop stop-color="#FFFCFD"/>
      <stop offset="0.56" stop-color="#F7EEF3"/>
      <stop offset="1" stop-color="#F2F0F5"/>
    </linearGradient>
    <radialGradient id="mist" cx="0" cy="0" r="1" gradientUnits="userSpaceOnUse" gradientTransform="translate(176 154) rotate(42) scale(178 142)">
      <stop stop-color="#FFE7F0" stop-opacity="0.74"/>
      <stop offset="1" stop-color="#FFE7F0" stop-opacity="0"/>
    </radialGradient>
    <linearGradient id="figure" x1="172" y1="160" x2="344" y2="378" gradientUnits="userSpaceOnUse">
      <stop stop-color="#DAB8C9"/>
      <stop offset="1" stop-color="#A98498"/>
    </linearGradient>
    <linearGradient id="petal" x1="248" y1="205" x2="291" y2="262" gradientUnits="userSpaceOnUse">
      <stop stop-color="#FFF6FA"/>
      <stop offset="1" stop-color="#E8A7BF"/>
    </linearGradient>
    <filter id="shadow" x="96" y="120" width="320" height="304" filterUnits="userSpaceOnUse" color-interpolation-filters="sRGB">
      <feDropShadow dx="0" dy="14" stdDeviation="18" flood-color="#B890A2" flood-opacity="0.18"/>
    </filter>
  </defs>

  <rect width="512" height="512" rx="156" fill="url(#bg)"/>
  <rect x="14" y="14" width="484" height="484" rx="146" stroke="#FFFFFF" stroke-opacity="0.78" stroke-width="28"/>
  <circle cx="176" cy="156" r="150" fill="url(#mist)"/>

  <g opacity="0.5">
    <circle cx="118" cy="136" r="6" fill="#FFFFFF"/>
    <circle cx="392" cy="132" r="8" fill="#FFFFFF"/>
    <circle cx="112" cy="376" r="5" fill="#D8C2CE"/>
    <circle cx="402" cy="388" r="5" fill="#D8C2CE"/>
  </g>

  <g filter="url(#shadow)">
    <circle cx="256" cy="196" r="58" fill="url(#figure)" opacity="0.82"/>
    <path
      d="M146 370C158 304 200 270 256 270C312 270 354 304 366 370C369 387 356 402 339 402H173C156 402 143 387 146 370Z"
      fill="url(#figure)"
      opacity="0.78"
    />
  </g>

  <g transform="translate(256 260)" opacity="0.92">
    <path d="M0 -42C13 -40 25 -30 26 -16C28 -1 16 10 0 12C-16 10 -28 -1 -26 -16C-25 -30 -13 -40 0 -42Z" fill="url(#petal)"/>
    <path d="M38 -12C34 1 22 10 8 7C-7 4 -14 -10 -8 -24C5 -31 20 -29 30 -21C34 -18 36 -15 38 -12Z" fill="url(#petal)"/>
    <path d="M24 34C11 37 -3 31 -8 17C-13 4 -4 -9 12 -12C26 -5 35 8 33 21C32 27 29 31 24 34Z" fill="url(#petal)"/>
    <path d="M-24 34C-34 25 -36 10 -26 -2C-17 -14 -2 -14 10 -3C10 13 1 27 -12 33C-16 35 -20 35 -24 34Z" fill="url(#petal)"/>
    <path d="M-38 -12C-29 -22 -14 -26 -2 -18C10 -10 10 6 -2 16C-18 16 -31 8 -37 -4C-39 -7 -39 -10 -38 -12Z" fill="url(#petal)"/>
    <circle cx="0" cy="0" r="8" fill="#C88BA5"/>
    <circle cx="0" cy="0" r="3" fill="#FFF8FB"/>
  </g>

  <path d="M168 416C218 438 296 438 344 416" stroke="#FFFFFF" stroke-opacity="0.58" stroke-width="10" stroke-linecap="round"/>
</svg>
